<?xml version="1.0" encoding="UTF-8" standalone="no"?>
<!-- Created with Inkscape (http://www.inkscape.org/) -->

<svg
   version="1.1"
   id="svg2"
   width="382.01587"
   height="132.21423"
   viewBox="0 0 382.01587 132.21423"
   sodipodi:docname="DLR_Logo_REMix_full_darkmode.svg"
   inkscape:version="1.2.2 (732a01da63, 2022-12-09)"
   xmlns:inkscape="http://www.inkscape.org/namespaces/inkscape"
   xmlns:sodipodi="http://sodipodi.sourceforge.net/DTD/sodipodi-0.dtd"
   xmlns="http://www.w3.org/2000/svg"
   xmlns:svg="http://www.w3.org/2000/svg">
  <sodipodi:namedview
     id="namedview4496"
     pagecolor="#ffffff"
     bordercolor="#000000"
     borderopacity="0.25"
     inkscape:showpageshadow="2"
     inkscape:pageopacity="0.0"
     inkscape:pagecheckerboard="0"
     inkscape:deskcolor="#d1d1d1"
     showgrid="false"
     inkscape:zoom="2.4131367"
     inkscape:cx="224.81113"
     inkscape:cy="37.088657"
     inkscape:window-width="1920"
     inkscape:window-height="1001"
     inkscape:window-x="-9"
     inkscape:window-y="-9"
     inkscape:window-maximized="1"
     inkscape:current-layer="g10" />
  <defs
     id="defs6">
    <clipPath
       clipPathUnits="userSpaceOnUse"
       id="clipPath20">
      <path
         d="M 0,0 H 3518.76 V 1607.51 H 0 Z"
         id="path18" />
    </clipPath>
    <clipPath
       clipPathUnits="userSpaceOnUse"
       id="clipPath38">
      <path
         d="m 812.648,922.105 h -15 v 39.266 h 15 z M 665.105,700.25 l -7.742,12.852 37.559,22.656 7.742,-12.852 z m 251.75,151.879 -7.746,12.844 42.731,25.773 7.746,-12.84 z m -11.406,-49.238 c -0.125,1.511 -1.465,2.593 -2.957,2.527 l -36.582,-2.91 c -1.515,-0.125 -2.648,-1.445 -2.531,-2.957 0.117,-1.449 1.32,-2.539 2.746,-2.539 0.066,0 0.145,0.008 0.215,0.008 l 36.582,2.91 c 1.512,0.129 2.644,1.445 2.527,2.961 z m -45.203,11.621 c 0.43,-1.067 1.453,-1.711 2.539,-1.711 0.352,0 0.703,0.066 1.043,0.215 l 37.422,15.379 c 1.406,0.578 2.082,2.179 1.496,3.585 -0.578,1.415 -2.18,2.098 -3.586,1.497 l -37.422,-15.383 c -1.406,-0.574 -2.078,-2.176 -1.492,-3.582 z m 10.164,35.879 -19.422,-17.407 c -1.133,-1.011 -1.23,-2.754 -0.215,-3.882 0.547,-0.61 1.297,-0.918 2.051,-0.918 0.653,0 1.309,0.234 1.836,0.703 l 19.422,17.398 c 1.133,1.02 1.231,2.758 0.215,3.891 -1.016,1.133 -2.754,1.226 -3.887,0.215 z M 858.379,884.344 834.27,845.27 c -0.793,-1.29 -0.391,-2.989 0.898,-3.79 0.449,-0.269 0.945,-0.41 1.445,-0.41 0.918,0 1.817,0.473 2.344,1.313 l 24.109,39.07 c 0.793,1.289 0.391,2.988 -0.898,3.789 -1.277,0.781 -2.977,0.403 -3.789,-0.898 z m -59.441,-90.293 c 0,-4.18 3.398,-7.578 7.578,-7.578 4.179,0 7.578,3.398 7.578,7.578 0,4.172 -3.399,7.566 -7.578,7.566 -4.18,0 -7.578,-3.394 -7.578,-7.566 z m 1.492,27.551 c 3.215,-3.34 9.004,-3.352 12.238,0.066 1.602,1.719 2.383,3.957 2.246,6.434 l -6.008,48.722 c -0.176,1.465 -0.633,2.918 -1.277,4.024 -0.324,0.547 -1.145,1.797 -2.09,1.797 -1.387,0 -2.883,-2.786 -3.144,-5.821 v -0.011 l -4.317,-49.188 c -0.078,-2.156 0.75,-4.363 2.352,-6.023 z m -15.848,-38.926 c -1.164,2 -3.047,3.406 -5.312,3.965 -0.637,0.132 -1.27,0.211 -1.907,0.211 -1.699,0 -3.367,-0.497 -4.843,-1.454 l -39.286,-29.414 c -2.687,-2.019 -3.996,-4.746 -3.371,-5.832 0.422,-0.742 1.68,-0.847 2.383,-0.847 1.309,0 2.852,0.371 4.238,1.015 l 44.836,20.723 c 1.914,0.984 3.399,2.793 4.043,5.012 0.653,2.246 0.379,4.59 -0.781,6.621 z m 15.938,-68.684 v 63.602 c -3.379,1.238 -6.282,3.441 -8.329,6.332 1.184,-3.199 1.352,-6.645 0.368,-9.973 -1.219,-4.211 -4.043,-7.637 -7.95,-9.648 l -44.968,-20.789 c -2.375,-1.106 -5,-1.711 -7.395,-1.711 -4.012,0 -7.168,1.633 -8.875,4.597 -3.203,5.547 0.535,11.965 5.371,15.578 l 39.492,29.563 c 3.946,2.566 8.36,3.387 12.715,2.41 0.008,-0.012 0.028,-0.012 0.047,-0.019 3.797,-0.914 6.965,-3.153 9.188,-6.282 -0.782,1.989 -1.246,4.137 -1.246,6.399 0,9.496 7.585,17.211 17.023,17.512 -4.176,0.156 -8.027,1.828 -10.93,4.832 -3.027,3.125 -4.609,7.285 -4.445,11.699 l 4.328,49.383 c 0.535,6.086 4.082,12.648 10.594,12.668 0.012,0 0.031,0 0.039,0 3.398,0 6.523,-2.012 8.555,-5.528 1.164,-1.972 1.964,-4.433 2.246,-6.902 l 6.027,-48.938 c 0.281,-4.757 -1.23,-9.023 -4.238,-12.246 -2.922,-3.09 -6.821,-4.804 -11.028,-4.972 9.418,-0.321 16.985,-8.024 16.985,-17.508 0,-7.582 -4.844,-13.992 -11.582,-16.457 v -63.602 c 0,-3.308 -2.688,-5.996 -5.996,-5.996 -3.313,0 -5.996,2.688 -5.996,5.996 z m 79.941,42.512 -40.332,28.457 c -1.281,0.809 -2.793,1.25 -4.356,1.25 -0.675,0 -1.359,-0.09 -2.043,-0.258 -2.265,-0.547 -4.148,-1.961 -5.32,-3.973 -1.164,-2.011 -1.437,-4.367 -0.773,-6.621 0.683,-2.265 2.207,-4.062 4.426,-5.175 l 45.125,-19.329 c 1.339,-0.574 2.851,-0.906 4.14,-0.906 0.625,0 2.129,0.086 2.61,0.906 0.683,1.184 -0.969,3.879 -3.477,5.649 z m 9.969,-9.406 c -1.746,-2.996 -4.969,-4.649 -9.102,-4.649 -2.312,0 -4.832,0.535 -7.098,1.516 l -45.332,19.422 c -4.257,2.136 -7.179,5.593 -8.449,9.836 -1.258,4.254 -0.73,8.687 1.465,12.515 2.227,3.813 5.781,6.477 10.031,7.5 4.266,1.059 8.633,0.317 12.364,-2.05 l 40.476,-28.551 c 0,0 0,0 0.012,0 4.988,-3.535 8.875,-9.895 5.633,-15.539 z M 618.316,651.492 c 0,0 18.161,36.012 -20.656,57.289 0,0 5.457,-9.273 -7.328,-20.422 -10.68,-9.273 -36.09,-39.906 1.254,-57.523 0,0 -15.121,19.801 3.66,30.711 0,0 -7.172,-11.535 5.688,-21.277 7.64,7.949 5.613,12.003 5.613,12.003 0,0 11.07,-8.886 2.887,-21.437 0,0 31.093,7.484 17.148,38.973 0,0 1.012,-12.082 -8.266,-18.317 z m 396.634,241.266 c 4.94,4.945 5.87,12.226 3.06,18.207 l 17.24,17.242 c 5.98,-2.809 13.27,-1.879 18.21,3.063 6.3,6.3 6.3,16.519 0,22.82 -6.3,6.301 -16.52,6.305 -22.82,0 -4.72,-4.719 -5.9,-11.621 -3.56,-17.438 l -17.52,-17.523 c -5.81,2.344 -12.716,1.164 -17.435,-3.551 -6.301,-6.301 -6.297,-16.515 0.004,-22.816 6.305,-6.305 16.521,-6.305 22.821,-0.004 z M 830.598,1036.28 H 805.18 v 45.86 l -22.176,-61.66 H 805.18 V 979.512 Z M 954.082,920.586 c 0,-35.227 28.664,-63.891 63.888,-63.891 35.22,0 63.89,28.664 63.89,63.891 0,35.223 -28.67,63.887 -63.89,63.887 -35.224,0 -63.888,-28.664 -63.888,-63.887 z m 33.762,-248.508 c 0,-13.75 11.191,-24.941 24.946,-24.941 13.76,0 24.96,11.191 24.96,24.941 0,13.762 -11.2,24.949 -24.96,24.949 -13.755,0 -24.946,-11.187 -24.946,-24.949 z M 806.777,962.691 c 35.227,0 63.887,28.664 63.887,63.889 0,35.22 -28.66,63.89 -63.887,63.89 -35.222,0 -63.886,-28.67 -63.886,-63.89 0,-35.225 28.664,-63.889 63.886,-63.889 z M 620.734,914.227 c 2.891,13.437 -5.695,26.738 -19.14,29.636 -13.418,2.883 -26.739,-5.691 -29.641,-19.136 -2.89,-13.442 5.695,-26.743 19.141,-29.641 6.515,-1.387 13.183,-0.176 18.781,3.43 5.605,3.613 9.461,9.199 10.859,15.711 z M 812.063,573.559 c -6.516,1.441 -13.196,0.191 -18.782,-3.43 -5.605,-3.609 -9.461,-9.188 -10.859,-15.707 -2.891,-13.442 5.695,-26.742 19.141,-29.641 13.507,-2.972 26.738,5.688 29.64,19.141 1.406,6.519 0.184,13.187 -3.43,18.777 -3.613,5.61 -9.199,9.473 -15.71,10.86 z m -145.508,96.058 c 0,35.227 -28.664,63.887 -63.887,63.887 -35.227,0 -63.887,-28.66 -63.887,-63.887 0,-35.222 28.66,-63.887 63.887,-63.887 35.223,0 63.887,28.665 63.887,63.887 z m 286.746,205.922 -30.586,-18.844 c 9.101,-17.867 15.539,-40.601 15.539,-61.992 0,-21.883 -5.02,-42.898 -14.563,-61.258 l 59.297,-35.031 c 7.325,8.281 17.902,13.613 29.802,13.613 22.04,0 39.96,-17.918 39.96,-39.949 0,-22.019 -17.92,-39.941 -39.96,-39.941 -22.028,0 -39.946,17.922 -39.946,39.941 0,4.735 0.972,9.215 2.492,13.434 l -72.094,42.59 3.899,6.476 c 10.535,17.512 16.113,38.301 16.113,60.125 0,64.223 -52.246,116.469 -116.477,116.469 -64.226,0 -116.472,-52.246 -116.472,-116.469 0,-64.226 52.246,-116.473 116.472,-116.473 h 7.5 v -89.89 c 0.321,-0.059 0.629,-0.039 0.95,-0.11 10.429,-2.25 19.355,-8.421 25.144,-17.378 5.793,-8.973 7.746,-19.653 5.5,-30.09 -4.043,-18.711 -20.644,-31.543 -39.062,-31.543 -2.774,0 -5.586,0.293 -8.411,0.902 -21.523,4.641 -35.273,25.93 -30.644,47.469 3.465,16.101 16.285,27.82 31.523,30.789 v 75.066 c -41.566,2.348 -78.703,25.422 -101.136,57.645 l -24.907,-15.055 c 5.289,-10.586 8.321,-23.801 8.321,-36.418 0,-43.496 -35.391,-78.887 -78.887,-78.887 -43.496,0 -78.887,35.391 -78.887,78.887 0,43.496 35.391,78.887 78.887,78.887 25.508,0 48.16,-12.223 62.59,-31.063 l 25.738,15.157 c -9.973,18.515 -15.691,39.644 -15.691,62.105 0,21.469 5.273,41.688 14.437,59.602 l -63.871,38.488 c -2.324,-2.566 -4.867,-4.949 -7.851,-6.875 -6.543,-4.223 -13.997,-6.406 -21.602,-6.406 -2.824,0 -5.656,0.301 -8.488,0.906 -21.524,4.648 -35.274,25.937 -30.645,47.473 4.66,21.531 25.949,35.261 47.473,30.64 21.523,-4.644 35.273,-25.933 30.644,-47.468 -0.406,-1.891 -1.086,-3.668 -1.746,-5.454 l 63.602,-38.324 c 22.527,33.879 60.347,56.621 103.523,58.582 v 22.129 c -40.695,3.086 -72.89,37.113 -72.89,78.584 0,43.49 35.39,78.89 78.886,78.89 43.496,0 78.887,-35.4 78.887,-78.89 0,-41.471 -32.191,-75.498 -72.891,-78.584 v -22.129 c 44.317,-2.015 82.911,-25.972 105.2,-61.328 l 29.261,21.348 c -5.168,10.488 -8.152,22.238 -8.152,34.699 0,43.492 35.391,78.887 78.888,78.887 43.5,0 78.89,-35.395 78.89,-78.887 0,-43.496 -35.39,-78.891 -78.89,-78.891 -26.751,0 -50.396,13.418 -64.669,33.844 z M 764.453,806.844 c 1.113,0 2.168,0.691 2.578,1.797 3.137,8.488 9.074,15.879 16.711,20.8 1.27,0.829 1.641,2.532 0.821,3.809 -0.833,1.277 -2.532,1.633 -3.809,0.82 -8.625,-5.578 -15.332,-13.925 -18.879,-23.515 -0.527,-1.426 0.207,-3.008 1.621,-3.535 0.324,-0.118 0.645,-0.176 0.957,-0.176 z m 68.281,26.933 c 12.461,-8.23 20.422,-22.031 21.289,-36.894 0.09,-1.516 -1.062,-2.813 -2.585,-2.903 -0.051,0 -0.11,-0.007 -0.157,-0.007 -1.445,0 -2.656,1.132 -2.746,2.597 -0.769,13.133 -7.812,25.332 -18.828,32.618 -1.269,0.839 -1.621,2.546 -0.781,3.808 0.84,1.27 2.558,1.609 3.808,0.781 z M 1217.92,612.461 C 1101.12,410.148 847.453,335.691 640.809,437.41 525.582,491.32 440.688,598.949 418.438,728.145 422.473,666.633 439.816,605.109 472.664,548.211 585.074,353.512 832.25,284.59 1028.96,390.281 c 125.48,68.739 215.72,193.797 236.15,341.457 -9.64,-40.883 -25.13,-81.074 -47.19,-119.277 z M 450.078,535.18 C 341.129,723.879 388.09,960.086 550.176,1095 c 6.097,5.26 12.422,10.21 18.84,15.09 2.461,1.84 4.847,3.73 7.355,5.51 65.156,47.23 145.027,75.4 231.649,75.4 53.707,0 104.867,-10.81 151.566,-30.2 -58.891,32.03 -126.328,50.24 -197.949,50.24 -229.141,0 -415.574,-186.43 -415.574,-415.567 h -0.032 c 0,0 0,0 0,-0.004 0,-174.106 96.399,-325.578 238.649,-404.328 -53.539,36.25 -100.16,84.379 -134.602,144.039 z m 311.559,701.94 c -62.789,0 -122.453,-13.37 -176.586,-37.1 66.129,36.53 142.078,57.44 222.969,57.44 92.324,0 178.132,-27.38 250.29,-74.04 3.74,-2.38 7.5,-4.72 11.14,-7.2 9.37,-6.45 18.44,-13.31 27.3,-20.42 2.55,-2.06 5.19,-4.04 7.69,-6.16 6.02,-5.04 11.67,-10.49 17.42,-15.83 135.57,-129.26 171.19,-339.083 73.48,-508.314 -43.58,-75.484 -107.5,-131.996 -180.82,-166.906 113.24,69.582 189.03,194.223 189.03,336.879 0,14.582 -0.91,28.937 -2.45,43.109 -21.75,223.362 -210.487,398.542 -439.463,398.542 z"
         id="path36" />
    </clipPath>
    <linearGradient
       x1="0"
       y1="0"
       x2="1"
       y2="0"
       gradientUnits="userSpaceOnUse"
       gradientTransform="matrix(652.753,652.753,652.753,-652.753,486.102,464.22)"
       spreadMethod="pad"
       id="linearGradient44">
      <stop
         style="stop-opacity:1;stop-color:#61a55e"
         offset="0"
         id="stop40" />
      <stop
         style="stop-opacity:1;stop-color:#127bca"
         offset="1"
         id="stop42" />
    </linearGradient>
    <clipPath
       clipPathUnits="userSpaceOnUse"
       id="clipPath54">
      <path
         d="M 0,0 H 3518.76 V 1607.51 H 0 Z"
         id="path52" />
    </clipPath>
  </defs>
  <g
     id="g10"
     transform="matrix(1.3333333,0,0,-1.3333333,-41.137466,172.66132)">
    <g
       id="g12"
       transform="scale(0.1)">
      <g
         id="g14"
         style="fill:#afafaf;fill-opacity:1">
        <g
           id="g16"
           clip-path="url(#clipPath20)"
           style="fill:#afafaf;fill-opacity:1">
          <path
             d="m 1522.41,948.328 h 15.61 c 23.38,0 50.17,3.387 50.17,32.875 0,28.497 -26.44,30.867 -50.17,30.867 h -15.61 z m -47.44,101.022 h 51.18 c 50.86,0 111.54,1.71 111.54,-64.069 0,-27.808 -18.67,-50.855 -48.82,-54.929 v -0.664 c 12.86,-1.016 20.33,-13.903 25.09,-24.422 l 37.97,-92.539 h -52.9 l -28.47,73.902 c -6.8,17.621 -12.88,24.418 -32.9,24.418 h -15.25 v -98.32 h -47.44 v 236.623"
             style="fill:#afafaf;fill-opacity:1;fill-rule:nonzero;stroke:none"
             id="path22" />
          <path
             d="m 1680.5,1049.35 h 139.68 v -37.28 h -92.21 v -58.316 h 84.41 v -37.281 h -84.41 v -66.465 h 92.89 V 812.727 H 1680.5 v 236.623"
             style="fill:#afafaf;fill-opacity:1;fill-rule:nonzero;stroke:none"
             id="path24" />
          <path
             d="m 1862.37,1049.35 h 75.94 l 56.28,-179.327 h 0.69 l 56.28,179.327 h 75.93 V 812.727 h -45.43 V 1008 h -0.68 l -63.74,-195.273 h -45.41 l -63.74,195.273 -0.69,-0.69 V 812.727 h -45.43 v 236.623"
             style="fill:#afafaf;fill-opacity:1;fill-rule:nonzero;stroke:none"
             id="path26" />
          <path
             d="m 2173.03,987.316 h 45.43 V 812.727 h -45.43 z m 0,75.254 h 45.43 v -43.39 h -45.43 v 43.39"
             style="fill:#afafaf;fill-opacity:1;fill-rule:nonzero;stroke:none"
             id="path28" />
          <path
             d="m 2244.76,987.316 h 53.58 l 34.23,-56.964 33.56,56.964 h 48.16 l -52.21,-83.066 58.98,-91.523 h -54.24 l -38.99,65.089 -39.32,-65.089 h -49.83 l 59.99,91.523 -53.91,83.066"
             style="fill:#afafaf;fill-opacity:1;fill-rule:nonzero;stroke:none"
             id="path30" />
        </g>
      </g>
      <g
         id="g32">
        <g
           id="g34"
           clip-path="url(#clipPath38)">
          <path
             d="m 812.648,922.105 h -15 v 39.266 h 15 z M 665.105,700.25 l -7.742,12.852 37.559,22.656 7.742,-12.852 z m 251.75,151.879 -7.746,12.844 42.731,25.773 7.746,-12.84 z m -11.406,-49.238 c -0.125,1.511 -1.465,2.593 -2.957,2.527 l -36.582,-2.91 c -1.515,-0.125 -2.648,-1.445 -2.531,-2.957 0.117,-1.449 1.32,-2.539 2.746,-2.539 0.066,0 0.145,0.008 0.215,0.008 l 36.582,2.91 c 1.512,0.129 2.644,1.445 2.527,2.961 z m -45.203,11.621 c 0.43,-1.067 1.453,-1.711 2.539,-1.711 0.352,0 0.703,0.066 1.043,0.215 l 37.422,15.379 c 1.406,0.578 2.082,2.179 1.496,3.585 -0.578,1.415 -2.18,2.098 -3.586,1.497 l -37.422,-15.383 c -1.406,-0.574 -2.078,-2.176 -1.492,-3.582 z m 10.164,35.879 -19.422,-17.407 c -1.133,-1.011 -1.23,-2.754 -0.215,-3.882 0.547,-0.61 1.297,-0.918 2.051,-0.918 0.653,0 1.309,0.234 1.836,0.703 l 19.422,17.398 c 1.133,1.02 1.231,2.758 0.215,3.891 -1.016,1.133 -2.754,1.226 -3.887,0.215 z M 858.379,884.344 834.27,845.27 c -0.793,-1.29 -0.391,-2.989 0.898,-3.79 0.449,-0.269 0.945,-0.41 1.445,-0.41 0.918,0 1.817,0.473 2.344,1.313 l 24.109,39.07 c 0.793,1.289 0.391,2.988 -0.898,3.789 -1.277,0.781 -2.977,0.403 -3.789,-0.898 z m -59.441,-90.293 c 0,-4.18 3.398,-7.578 7.578,-7.578 4.179,0 7.578,3.398 7.578,7.578 0,4.172 -3.399,7.566 -7.578,7.566 -4.18,0 -7.578,-3.394 -7.578,-7.566 z m 1.492,27.551 c 3.215,-3.34 9.004,-3.352 12.238,0.066 1.602,1.719 2.383,3.957 2.246,6.434 l -6.008,48.722 c -0.176,1.465 -0.633,2.918 -1.277,4.024 -0.324,0.547 -1.145,1.797 -2.09,1.797 -1.387,0 -2.883,-2.786 -3.144,-5.821 v -0.011 l -4.317,-49.188 c -0.078,-2.156 0.75,-4.363 2.352,-6.023 z m -15.848,-38.926 c -1.164,2 -3.047,3.406 -5.312,3.965 -0.637,0.132 -1.27,0.211 -1.907,0.211 -1.699,0 -3.367,-0.497 -4.843,-1.454 l -39.286,-29.414 c -2.687,-2.019 -3.996,-4.746 -3.371,-5.832 0.422,-0.742 1.68,-0.847 2.383,-0.847 1.309,0 2.852,0.371 4.238,1.015 l 44.836,20.723 c 1.914,0.984 3.399,2.793 4.043,5.012 0.653,2.246 0.379,4.59 -0.781,6.621 z m 15.938,-68.684 v 63.602 c -3.379,1.238 -6.282,3.441 -8.329,6.332 1.184,-3.199 1.352,-6.645 0.368,-9.973 -1.219,-4.211 -4.043,-7.637 -7.95,-9.648 l -44.968,-20.789 c -2.375,-1.106 -5,-1.711 -7.395,-1.711 -4.012,0 -7.168,1.633 -8.875,4.597 -3.203,5.547 0.535,11.965 5.371,15.578 l 39.492,29.563 c 3.946,2.566 8.36,3.387 12.715,2.41 0.008,-0.012 0.028,-0.012 0.047,-0.019 3.797,-0.914 6.965,-3.153 9.188,-6.282 -0.782,1.989 -1.246,4.137 -1.246,6.399 0,9.496 7.585,17.211 17.023,17.512 -4.176,0.156 -8.027,1.828 -10.93,4.832 -3.027,3.125 -4.609,7.285 -4.445,11.699 l 4.328,49.383 c 0.535,6.086 4.082,12.648 10.594,12.668 0.012,0 0.031,0 0.039,0 3.398,0 6.523,-2.012 8.555,-5.528 1.164,-1.972 1.964,-4.433 2.246,-6.902 l 6.027,-48.938 c 0.281,-4.757 -1.23,-9.023 -4.238,-12.246 -2.922,-3.09 -6.821,-4.804 -11.028,-4.972 9.418,-0.321 16.985,-8.024 16.985,-17.508 0,-7.582 -4.844,-13.992 -11.582,-16.457 v -63.602 c 0,-3.308 -2.688,-5.996 -5.996,-5.996 -3.313,0 -5.996,2.688 -5.996,5.996 z m 79.941,42.512 -40.332,28.457 c -1.281,0.809 -2.793,1.25 -4.356,1.25 -0.675,0 -1.359,-0.09 -2.043,-0.258 -2.265,-0.547 -4.148,-1.961 -5.32,-3.973 -1.164,-2.011 -1.437,-4.367 -0.773,-6.621 0.683,-2.265 2.207,-4.062 4.426,-5.175 l 45.125,-19.329 c 1.339,-0.574 2.851,-0.906 4.14,-0.906 0.625,0 2.129,0.086 2.61,0.906 0.683,1.184 -0.969,3.879 -3.477,5.649 z m 9.969,-9.406 c -1.746,-2.996 -4.969,-4.649 -9.102,-4.649 -2.312,0 -4.832,0.535 -7.098,1.516 l -45.332,19.422 c -4.257,2.136 -7.179,5.593 -8.449,9.836 -1.258,4.254 -0.73,8.687 1.465,12.515 2.227,3.813 5.781,6.477 10.031,7.5 4.266,1.059 8.633,0.317 12.364,-2.05 l 40.476,-28.551 c 0,0 0,0 0.012,0 4.988,-3.535 8.875,-9.895 5.633,-15.539 z M 618.316,651.492 c 0,0 18.161,36.012 -20.656,57.289 0,0 5.457,-9.273 -7.328,-20.422 -10.68,-9.273 -36.09,-39.906 1.254,-57.523 0,0 -15.121,19.801 3.66,30.711 0,0 -7.172,-11.535 5.688,-21.277 7.64,7.949 5.613,12.003 5.613,12.003 0,0 11.07,-8.886 2.887,-21.437 0,0 31.093,7.484 17.148,38.973 0,0 1.012,-12.082 -8.266,-18.317 z m 396.634,241.266 c 4.94,4.945 5.87,12.226 3.06,18.207 l 17.24,17.242 c 5.98,-2.809 13.27,-1.879 18.21,3.063 6.3,6.3 6.3,16.519 0,22.82 -6.3,6.301 -16.52,6.305 -22.82,0 -4.72,-4.719 -5.9,-11.621 -3.56,-17.438 l -17.52,-17.523 c -5.81,2.344 -12.716,1.164 -17.435,-3.551 -6.301,-6.301 -6.297,-16.515 0.004,-22.816 6.305,-6.305 16.521,-6.305 22.821,-0.004 z M 830.598,1036.28 H 805.18 v 45.86 l -22.176,-61.66 H 805.18 V 979.512 Z M 954.082,920.586 c 0,-35.227 28.664,-63.891 63.888,-63.891 35.22,0 63.89,28.664 63.89,63.891 0,35.223 -28.67,63.887 -63.89,63.887 -35.224,0 -63.888,-28.664 -63.888,-63.887 z m 33.762,-248.508 c 0,-13.75 11.191,-24.941 24.946,-24.941 13.76,0 24.96,11.191 24.96,24.941 0,13.762 -11.2,24.949 -24.96,24.949 -13.755,0 -24.946,-11.187 -24.946,-24.949 z M 806.777,962.691 c 35.227,0 63.887,28.664 63.887,63.889 0,35.22 -28.66,63.89 -63.887,63.89 -35.222,0 -63.886,-28.67 -63.886,-63.89 0,-35.225 28.664,-63.889 63.886,-63.889 z M 620.734,914.227 c 2.891,13.437 -5.695,26.738 -19.14,29.636 -13.418,2.883 -26.739,-5.691 -29.641,-19.136 -2.89,-13.442 5.695,-26.743 19.141,-29.641 6.515,-1.387 13.183,-0.176 18.781,3.43 5.605,3.613 9.461,9.199 10.859,15.711 z M 812.063,573.559 c -6.516,1.441 -13.196,0.191 -18.782,-3.43 -5.605,-3.609 -9.461,-9.188 -10.859,-15.707 -2.891,-13.442 5.695,-26.742 19.141,-29.641 13.507,-2.972 26.738,5.688 29.64,19.141 1.406,6.519 0.184,13.187 -3.43,18.777 -3.613,5.61 -9.199,9.473 -15.71,10.86 z m -145.508,96.058 c 0,35.227 -28.664,63.887 -63.887,63.887 -35.227,0 -63.887,-28.66 -63.887,-63.887 0,-35.222 28.66,-63.887 63.887,-63.887 35.223,0 63.887,28.665 63.887,63.887 z m 286.746,205.922 -30.586,-18.844 c 9.101,-17.867 15.539,-40.601 15.539,-61.992 0,-21.883 -5.02,-42.898 -14.563,-61.258 l 59.297,-35.031 c 7.325,8.281 17.902,13.613 29.802,13.613 22.04,0 39.96,-17.918 39.96,-39.949 0,-22.019 -17.92,-39.941 -39.96,-39.941 -22.028,0 -39.946,17.922 -39.946,39.941 0,4.735 0.972,9.215 2.492,13.434 l -72.094,42.59 3.899,6.476 c 10.535,17.512 16.113,38.301 16.113,60.125 0,64.223 -52.246,116.469 -116.477,116.469 -64.226,0 -116.472,-52.246 -116.472,-116.469 0,-64.226 52.246,-116.473 116.472,-116.473 h 7.5 v -89.89 c 0.321,-0.059 0.629,-0.039 0.95,-0.11 10.429,-2.25 19.355,-8.421 25.144,-17.378 5.793,-8.973 7.746,-19.653 5.5,-30.09 -4.043,-18.711 -20.644,-31.543 -39.062,-31.543 -2.774,0 -5.586,0.293 -8.411,0.902 -21.523,4.641 -35.273,25.93 -30.644,47.469 3.465,16.101 16.285,27.82 31.523,30.789 v 75.066 c -41.566,2.348 -78.703,25.422 -101.136,57.645 l -24.907,-15.055 c 5.289,-10.586 8.321,-23.801 8.321,-36.418 0,-43.496 -35.391,-78.887 -78.887,-78.887 -43.496,0 -78.887,35.391 -78.887,78.887 0,43.496 35.391,78.887 78.887,78.887 25.508,0 48.16,-12.223 62.59,-31.063 l 25.738,15.157 c -9.973,18.515 -15.691,39.644 -15.691,62.105 0,21.469 5.273,41.688 14.437,59.602 l -63.871,38.488 c -2.324,-2.566 -4.867,-4.949 -7.851,-6.875 -6.543,-4.223 -13.997,-6.406 -21.602,-6.406 -2.824,0 -5.656,0.301 -8.488,0.906 -21.524,4.648 -35.274,25.937 -30.645,47.473 4.66,21.531 25.949,35.261 47.473,30.64 21.523,-4.644 35.273,-25.933 30.644,-47.468 -0.406,-1.891 -1.086,-3.668 -1.746,-5.454 l 63.602,-38.324 c 22.527,33.879 60.347,56.621 103.523,58.582 v 22.129 c -40.695,3.086 -72.89,37.113 -72.89,78.584 0,43.49 35.39,78.89 78.886,78.89 43.496,0 78.887,-35.4 78.887,-78.89 0,-41.471 -32.191,-75.498 -72.891,-78.584 v -22.129 c 44.317,-2.015 82.911,-25.972 105.2,-61.328 l 29.261,21.348 c -5.168,10.488 -8.152,22.238 -8.152,34.699 0,43.492 35.391,78.887 78.888,78.887 43.5,0 78.89,-35.395 78.89,-78.887 0,-43.496 -35.39,-78.891 -78.89,-78.891 -26.751,0 -50.396,13.418 -64.669,33.844 z M 764.453,806.844 c 1.113,0 2.168,0.691 2.578,1.797 3.137,8.488 9.074,15.879 16.711,20.8 1.27,0.829 1.641,2.532 0.821,3.809 -0.833,1.277 -2.532,1.633 -3.809,0.82 -8.625,-5.578 -15.332,-13.925 -18.879,-23.515 -0.527,-1.426 0.207,-3.008 1.621,-3.535 0.324,-0.118 0.645,-0.176 0.957,-0.176 z m 68.281,26.933 c 12.461,-8.23 20.422,-22.031 21.289,-36.894 0.09,-1.516 -1.062,-2.813 -2.585,-2.903 -0.051,0 -0.11,-0.007 -0.157,-0.007 -1.445,0 -2.656,1.132 -2.746,2.597 -0.769,13.133 -7.812,25.332 -18.828,32.618 -1.269,0.839 -1.621,2.546 -0.781,3.808 0.84,1.27 2.558,1.609 3.808,0.781 z M 1217.92,612.461 C 1101.12,410.148 847.453,335.691 640.809,437.41 525.582,491.32 440.688,598.949 418.438,728.145 422.473,666.633 439.816,605.109 472.664,548.211 585.074,353.512 832.25,284.59 1028.96,390.281 c 125.48,68.739 215.72,193.797 236.15,341.457 -9.64,-40.883 -25.13,-81.074 -47.19,-119.277 z M 450.078,535.18 C 341.129,723.879 388.09,960.086 550.176,1095 c 6.097,5.26 12.422,10.21 18.84,15.09 2.461,1.84 4.847,3.73 7.355,5.51 65.156,47.23 145.027,75.4 231.649,75.4 53.707,0 104.867,-10.81 151.566,-30.2 -58.891,32.03 -126.328,50.24 -197.949,50.24 -229.141,0 -415.574,-186.43 -415.574,-415.567 h -0.032 c 0,0 0,0 0,-0.004 0,-174.106 96.399,-325.578 238.649,-404.328 -53.539,36.25 -100.16,84.379 -134.602,144.039 z m 311.559,701.94 c -62.789,0 -122.453,-13.37 -176.586,-37.1 66.129,36.53 142.078,57.44 222.969,57.44 92.324,0 178.132,-27.38 250.29,-74.04 3.74,-2.38 7.5,-4.72 11.14,-7.2 9.37,-6.45 18.44,-13.31 27.3,-20.42 2.55,-2.06 5.19,-4.04 7.69,-6.16 6.02,-5.04 11.67,-10.49 17.42,-15.83 135.57,-129.26 171.19,-339.083 73.48,-508.314 -43.58,-75.484 -107.5,-131.996 -180.82,-166.906 113.24,69.582 189.03,194.223 189.03,336.879 0,14.582 -0.91,28.937 -2.45,43.109 -21.75,223.362 -210.487,398.542 -439.463,398.542"
             style="fill:url(#linearGradient44);fill-opacity:1;fill-rule:nonzero;stroke:none"
             id="path46" />
        </g>
      </g>
      <g
         id="g48"
         style="fill:#afafaf;fill-opacity:1">
        <g
           id="g50"
           clip-path="url(#clipPath54)"
           style="fill:#afafaf;fill-opacity:1">
          <path
             d="m 1490.38,679.988 h 13.6 c 15.21,0 24.17,6.719 24.17,17.442 0,10.097 -7.68,16.484 -22.41,16.484 h -15.36 z m -16.01,48.028 h 27.37 c 22.09,0 43.38,-3.536 43.38,-30.254 0,-13.614 -10.08,-23.223 -23.05,-25.449 v -0.333 c 4.96,-1.914 7.37,-4.316 10.89,-11.191 l 21.12,-44.512 h -18.24 l -17.13,38.75 c -4.96,10.879 -10.25,10.879 -18.73,10.879 h -9.6 v -49.629 h -16.01 v 111.739"
             style="fill:#afafaf;fill-opacity:1;fill-rule:nonzero;stroke:none"
             id="path56" />
          <path
             d="m 1622.87,664.949 c 0,12.481 -7.36,22.715 -20.33,22.715 -14.72,0 -20.8,-12.148 -21.93,-22.715 z m 9.76,-45.312 c -5.76,-2.071 -12.32,-5.274 -25.77,-5.274 -28.97,0 -42.25,17.598 -42.25,44.18 0,24.16 15.2,41.289 38.25,41.289 27.21,0 36.01,-19.844 36.01,-46.094 h -58.26 c 0,-16.172 12.65,-27.207 26.89,-27.207 9.93,0 21.45,5.117 25.13,8.164 v -15.058"
             style="fill:#afafaf;fill-opacity:1;fill-rule:nonzero;stroke:none"
             id="path58" />
          <path
             d="m 1657.41,697.918 h 14.57 v -12.969 h 0.32 c 4.48,9.278 15.36,14.883 26.73,14.883 21.13,0 30.57,-13.125 30.57,-35.059 v -48.496 h -15.05 v 42.266 c 0,19.043 -4.16,28.32 -17.28,29.121 -17.13,0 -24.81,-13.75 -24.81,-33.613 v -37.774 h -15.05 v 81.641"
             style="fill:#afafaf;fill-opacity:1;fill-rule:nonzero;stroke:none"
             id="path60" />
          <path
             d="m 1806.38,664.949 c 0,12.481 -7.36,22.715 -20.32,22.715 -14.72,0 -20.8,-12.148 -21.93,-22.715 z m 9.77,-45.312 c -5.76,-2.071 -12.32,-5.274 -25.77,-5.274 -28.97,0 -42.25,17.598 -42.25,44.18 0,24.16 15.2,41.289 38.25,41.289 27.21,0 36.01,-19.844 36.01,-46.094 h -58.26 c 0,-16.172 12.65,-27.207 26.89,-27.207 9.92,0 21.45,5.117 25.13,8.164 v -15.058"
             style="fill:#afafaf;fill-opacity:1;fill-rule:nonzero;stroke:none"
             id="path62" />
          <path
             d="m 1933.28,616.277 h -17.44 l -21.14,68.516 h -0.32 l -20.64,-68.516 h -17.45 l -26.25,81.641 h 16.49 l 18.72,-67.559 h 0.32 l 20.81,67.559 h 17.77 l 20.49,-67.559 h 0.32 l 19.85,67.559 h 14.72 l -26.25,-81.641"
             style="fill:#afafaf;fill-opacity:1;fill-rule:nonzero;stroke:none"
             id="path64" />
          <path
             d="m 2021.11,655.184 c -3.2,0 -6.41,0.312 -9.61,0.312 -8.16,0 -28.33,-1.269 -28.33,-15.683 0,-8.653 8.33,-13.282 15.21,-13.282 14.89,0 22.73,9.278 22.73,21.446 z m -44.66,36.972 c 7.52,4.473 16.49,7.676 26.89,7.676 23.38,0 32.82,-11.523 32.82,-33.769 v -33.77 c 0,-9.297 0.31,-13.613 0.63,-16.016 h -14.08 v 10.567 h -0.32 c -3.53,-4.961 -11.52,-12.481 -25.29,-12.481 -17.61,0 -29.93,7.676 -29.93,25.45 0,20.488 22.41,26.894 37.94,26.894 5.91,0 10.07,0 16,-0.332 0,14.102 -5.13,21.289 -20.17,21.289 -8.48,0 -17.6,-3.203 -23.69,-8.32 l -0.8,12.812"
             style="fill:#afafaf;fill-opacity:1;fill-rule:nonzero;stroke:none"
             id="path66" />
          <path
             d="m 2099.19,687.664 c -16.33,0 -24.17,-15.527 -24.17,-30.723 0,-13.613 7.04,-30.41 24,-30.41 16.17,0 22.89,18.086 22.57,30.879 0.32,14.727 -6.07,30.254 -22.4,30.254 z m -39.22,48.672 h 15.05 v -49.629 h 0.31 c 4.65,7.52 12.81,13.125 27.06,13.125 23.68,0 35.21,-19.355 35.21,-41.289 0,-22.422 -10.41,-44.18 -35.05,-44.18 -14.57,0 -23.85,7.364 -27.86,13.438 h -0.32 v -11.524 h -14.4 v 120.059"
             style="fill:#afafaf;fill-opacity:1;fill-rule:nonzero;stroke:none"
             id="path68" />
          <path
             d="m 2158.04,736.336 h 15.05 V 616.277 h -15.05 v 120.059"
             style="fill:#afafaf;fill-opacity:1;fill-rule:nonzero;stroke:none"
             id="path70" />
          <path
             d="m 2251.83,664.949 c 0,12.481 -7.36,22.715 -20.33,22.715 -14.72,0 -20.8,-12.148 -21.92,-22.715 z m 9.77,-45.312 c -5.76,-2.071 -12.32,-5.274 -25.77,-5.274 -28.98,0 -42.26,17.598 -42.26,44.18 0,24.16 15.21,41.289 38.25,41.289 27.21,0 36.02,-19.844 36.02,-46.094 h -58.26 c 0,-16.172 12.64,-27.207 26.88,-27.207 9.93,0 21.46,5.117 25.14,8.164 v -15.058"
             style="fill:#afafaf;fill-opacity:1;fill-rule:nonzero;stroke:none"
             id="path72" />
          <path
             d="m 2331.48,728.016 h 62.59 v -14.102 h -46.57 v -32.637 h 42.41 v -14.101 h -42.41 v -36.817 h 46.57 v -14.082 h -62.59 v 111.739"
             style="fill:#afafaf;fill-opacity:1;fill-rule:nonzero;stroke:none"
             id="path74" />
          <path
             d="m 2416.61,697.918 h 14.57 v -12.969 h 0.31 c 4.48,9.278 15.37,14.883 26.74,14.883 21.12,0 30.57,-13.125 30.57,-35.059 v -48.496 h -15.05 v 42.266 c 0,19.043 -4.16,28.32 -17.29,29.121 -17.13,0 -24.8,-13.75 -24.8,-33.613 v -37.774 h -15.05 v 81.641"
             style="fill:#afafaf;fill-opacity:1;fill-rule:nonzero;stroke:none"
             id="path76" />
          <path
             d="m 2565.58,664.949 c 0,12.481 -7.36,22.715 -20.32,22.715 -14.73,0 -20.81,-12.148 -21.93,-22.715 z m 9.77,-45.312 c -5.76,-2.071 -12.33,-5.274 -25.77,-5.274 -28.97,0 -42.26,17.598 -42.26,44.18 0,24.16 15.21,41.289 38.26,41.289 27.21,0 36.01,-19.844 36.01,-46.094 h -58.26 c 0,-16.172 12.64,-27.207 26.89,-27.207 9.92,0 21.45,5.117 25.13,8.164 v -15.058"
             style="fill:#afafaf;fill-opacity:1;fill-rule:nonzero;stroke:none"
             id="path78" />
          <path
             d="m 2600.12,697.918 h 14.09 v -12.656 h 0.32 c 4,8.496 12.65,14.57 21.29,14.57 4.48,0 6.73,-0.469 9.92,-1.113 v -13.457 c -2.72,1.133 -5.76,1.445 -8.32,1.445 -13.45,0 -22.25,-12.793 -22.25,-33.281 v -37.149 h -15.05 v 81.641"
             style="fill:#afafaf;fill-opacity:1;fill-rule:nonzero;stroke:none"
             id="path80" />
          <path
             d="m 2717.91,656.141 c 0,16.972 -7.84,31.523 -23.85,31.523 -15.21,0 -22.73,-16.484 -22.73,-30.41 0,-15.371 8.64,-28.809 22.73,-28.809 14.08,0 23.85,12.481 23.85,27.696 z m 15.05,-36.328 c 0,-24.825 -12.82,-39.063 -42.1,-39.063 -8.65,0 -16.17,1.109 -29.3,5.609 l 1.6,13.922 c 11.53,-5.293 18.41,-7.359 29.45,-7.359 15.85,0 25.3,10.719 25.3,28.004 v 8.008 h -0.32 c -6.4,-8.496 -16.97,-12.657 -27.38,-12.657 -23.37,0 -34.89,19.043 -34.89,40.176 0,20.977 11.85,43.379 36.49,43.379 14.41,0 22.42,-5.273 26.9,-14.082 h 0.32 v 12.168 h 13.93 v -78.105"
             style="fill:#afafaf;fill-opacity:1;fill-rule:nonzero;stroke:none"
             id="path82" />
          <path
             d="m 2750.85,594.191 c 1.91,-0.632 4.48,-1.269 7.04,-1.269 13.45,0 17.93,18.551 17.93,20.152 0,1.758 -1.93,5.938 -2.88,8.653 l -27.7,76.191 h 16.49 l 21.93,-67.559 h 0.32 l 22.4,67.559 h 15.21 L 2791.5,614.52 c -5.6,-15.68 -11.52,-33.77 -31.38,-33.77 -4.79,0 -7.52,0.641 -10.24,1.109 l 0.97,12.332"
             style="fill:#afafaf;fill-opacity:1;fill-rule:nonzero;stroke:none"
             id="path84" />
          <path
             d="m 2879.8,728.016 h 26.41 l 35.06,-92.852 34.41,92.852 h 26.41 V 616.277 h -16.01 v 96.68 h -0.32 l -36.97,-96.68 h -15.69 l -36.97,96.68 h -0.32 v -96.68 h -16.01 v 111.739"
             style="fill:#afafaf;fill-opacity:1;fill-rule:nonzero;stroke:none"
             id="path86" />
          <path
             d="m 3029.56,697.918 h 15.05 v -81.641 h -15.05 z m 16,18.242 h -16.96 v 16.973 h 16.96 V 716.16"
             style="fill:#afafaf;fill-opacity:1;fill-rule:nonzero;stroke:none"
             id="path88" />
          <path
             d="m 3088.77,659.012 -26.57,38.906 h 18.73 l 17.76,-29.141 18.09,29.141 h 16.8 l -26.25,-38.906 28.82,-42.735 h -18.57 l -20.17,32.012 -20.17,-32.012 h -17.93 l 29.46,42.735"
             style="fill:#afafaf;fill-opacity:1;fill-rule:nonzero;stroke:none"
             id="path90" />
        </g>
      </g>
    </g>
  </g>
</svg>
